HIERARCHY
ROOT Hip
{
	OFFSET	0.0000	0.0000	0.0000
	CHANNELS 6 Xposition Yposition Zposition Xrotation Yrotation Zrotation
	JOINT LowerSpine
	{
		OFFSET	0.0000	8.3453	-5.1292
		CHANNELS 3 Xrotation Yrotation Zrotation
		JOINT MiddleSpine
		{
			OFFSET	10.8569	0.0000	0.0000
			CHANNELS 3 Xrotation Yrotation Zrotation
			JOINT Chest
			{
				OFFSET	15.2984	0.0000	0.0000
				CHANNELS 3 Xrotation Yrotation Zrotation
				JOINT Neck
				{
					OFFSET	25.6618	-0.5986	0.0000
					CHANNELS 3 Xrotation Yrotation Zrotation
					JOINT Head
					{
						OFFSET	8.8829	0.0000	0.0000
						CHANNELS 3 Xrotation Yrotation Zrotation
						End Site
						{
							OFFSET	19.7399	0.0000	0.0000
						}
					}
				}
				JOINT RClavicle
				{
					OFFSET	23.6878	0.0000	3.1584
					CHANNELS 3 Xrotation Yrotation Zrotation
					JOINT RShoulder
					{
						OFFSET	-15.5945	-3.9480	0.9870
						CHANNELS 3 Xrotation Yrotation Zrotation
						JOINT RForearm
						{
							OFFSET	-31.3370	0.0000	0.1974
							CHANNELS 3 Xrotation Yrotation Zrotation
							JOINT RHand
							{
								OFFSET	-26.4021	0.0000	0.0000
								CHANNELS 3 Xrotation Yrotation Zrotation
								End Site
								{
									OFFSET	-15.7919	-0.9870	0.0000
								}
							}
						}
					}
				}
				JOINT LClavicle
				{
					OFFSET	23.6878	0.0000	-3.1584
					CHANNELS 3 Xrotation Yrotation Zrotation
					JOINT LShoulder
					{
						OFFSET	-15.5945	-3.9480	-0.9870
						CHANNELS 3 Xrotation Yrotation Zrotation
						JOINT LForearm
						{
							OFFSET	-31.3370	0.0000	-0.1974
							CHANNELS 3 Xrotation Yrotation Zrotation
							JOINT LHand
							{
								OFFSET	-26.4021	0.0000	0.0000
								CHANNELS 3 Xrotation Yrotation Zrotation
								End Site
								{
									OFFSET	-15.7919	-0.9870	0.0000
								}
							}
						}
					}
				}
			}
		}
	}
	JOINT RThigh
	{
		OFFSET	-8.8829	0.4481	0.0000
		CHANNELS 3 Xrotation Yrotation Zrotation
		JOINT RShin
		{
			OFFSET	43.1316	0.0000	-0.4935
			CHANNELS 3 Xrotation Yrotation Zrotation
			JOINT RFoot
			{
				OFFSET	0.0000	-44.7256	-0.4047
				CHANNELS 3 Xrotation Yrotation Zrotation
				JOINT RToe
				{
					OFFSET	0.0000	-3.9332	12.1953
					CHANNELS 3 Xrotation Yrotation Zrotation
					End Site
					{
						OFFSET	6.7725	0.0000	0.0000
					}
				}
			}
		}
	}
	JOINT LThigh
	{
		OFFSET	8.8829	0.4481	0.0000
		CHANNELS 3 Xrotation Yrotation Zrotation
		JOINT LShin
		{
			OFFSET	43.1316	0.0000	0.4935
			CHANNELS 3 Xrotation Yrotation Zrotation
			JOINT LFoot
			{
				OFFSET	0.0000	-44.7256	0.4047
				CHANNELS 3 Xrotation Yrotation Zrotation
				JOINT LToe
				{
					OFFSET	0.0000	-3.9332	-12.1953
					CHANNELS 3 Xrotation Yrotation Zrotation
					End Site
					{
						OFFSET	6.7725	0.0000	0.0000
					}
				}
			}
		}
	}
}
MOTION
Frames:	10
Frame Time: 0.0169491000
	9.8046	19.9331	-16.3394	27.008630	4.574932	-2.884291	-89.999990	-90.000000	0.000000	0.010700	-0.443025	-0.174987	0.036787	-1.486415	-0.584980	0.000000	0.000000	0.000000	0.000000	0.000000	0.000000	89.996860	-0.081726	-88.901140	-78.889450	-13.146130	97.152590	72.371330	83.859410	-72.720850	0.000000	0.000000	0.000000	-89.998940	0.024228	-89.674450	70.741940	-42.705380	78.191200	-169.617300	-59.716610	-168.313900	0.000000	0.000000	0.000000	-48.138330	75.575880	-178.565000	-89.939110	19.410060	-91.040450	-43.298120	3.024614	6.781082	172.299000	90.000000	0.000000	161.063600	62.434470	-46.845900	89.829510	-29.928350	-91.075650	19.339390	-8.343823	5.853940	181.808300	-90.000000	0.000000
	9.3104	20.4488	-16.5576	27.296490	4.711701	-3.283762	-89.999990	-90.000000	0.000000	-0.021322	-0.404991	-0.161900	-0.073099	-1.352666	-0.540612	0.000000	0.000000	0.000000	0.000000	0.000000	0.000000	89.997280	-0.067400	-89.093630	-80.574230	-10.159690	97.564350	65.527780	83.576400	-65.918270	0.000000	0.000000	0.000000	-89.999140	0.019480	-89.738270	70.892470	-42.735550	78.138600	-169.608900	-59.737050	-168.306700	0.000000	0.000000	0.000000	-49.518230	75.719120	-177.004500	-89.930150	20.328000	-91.042560	-44.207760	-0.301279	0.792988	173.567100	90.000000	0.000000	160.564700	61.777160	-46.363160	89.819070	-30.845640	-91.079990	18.434150	-9.110733	6.175794	182.174000	-90.000000	0.000000
	8.9917	21.3363	-16.7841	27.704300	4.624956	-3.824443	-89.999990	-90.000000	0.000000	-0.054714	-0.359020	-0.142177	-0.182209	-1.198480	-0.474791	0.000000	0.000000	0.000000	0.000000	0.000000	0.000000	89.997750	-0.053625	-89.278730	-82.121440	-6.320087	97.302100	62.553650	83.415240	-62.963280	0.000000	0.000000	0.000000	-89.998960	0.023550	-89.683580	71.033980	-42.702700	78.590310	-169.572500	-59.825320	-168.275300	0.000000	0.000000	0.000000	-51.654090	75.710860	-174.060500	-89.917140	21.643750	-91.045870	-44.600750	-2.546526	-3.406809	173.943600	90.000000	0.000000	160.324300	61.467850	-45.338680	89.806120	-31.960680	-91.085600	18.433450	-9.356882	6.425431	182.385100	-90.000000	0.000000
	9.0061	22.6639	-16.9226	28.087640	4.057544	-4.318094	-89.999990	-90.000000	0.000000	-0.083108	-0.306380	-0.117190	-0.275895	-1.022281	-0.391726	0.000000	0.000000	0.000000	0.000000	0.000000	0.000000	89.998220	-0.040801	-89.451120	-83.357180	-0.405991	96.495480	59.308720	83.208750	-59.740410	0.000000	0.000000	0.000000	-89.998540	0.034128	-89.541440	70.546660	-42.516670	79.283610	-169.596800	-59.766430	-168.296200	0.000000	0.000000	0.000000	-53.378640	75.395140	-170.726200	-89.898960	23.447350	-91.051000	-44.438060	-3.502844	-5.247867	173.652200	90.000000	0.000000	161.032500	61.558690	-44.057820	89.792350	-33.119800	-91.091830	19.539080	-8.845130	6.444584	182.632000	-90.000000	0.000000
	9.0518	24.3036	-17.0683	28.431890	3.083417	-4.653892	-89.999990	-90.000000	0.000000	-0.102238	-0.248509	-0.090485	-0.340033	-0.828065	-0.303191	0.000000	0.000000	0.000000	0.000000	0.000000	0.000000	89.998690	-0.029098	-89.608380	-84.506040	7.175050	95.548610	53.325540	82.728450	-53.802100	0.000000	0.000000	0.000000	-89.997990	0.048220	-89.351960	69.283040	-42.192080	79.379480	-169.745400	-59.401220	-168.424400	0.000000	0.000000	0.000000	-56.116870	75.026240	-166.104200	-89.876190	25.645690	-91.058210	-43.772310	-3.906049	-5.985296	173.020100	90.000000	0.000000	162.456700	61.596960	-42.837830	89.775790	-34.477440	-91.099660	20.865060	-7.836388	6.135459	183.077200	-90.000000	0.000000
	8.8302	25.9477	-17.2938	28.785790	2.132345	-4.948900	-89.999990	-90.000000	0.000000	-0.110806	-0.192719	-0.067225	-0.367416	-0.629435	-0.224683	0.000000	0.000000	0.000000	0.000000	0.000000	0.000000	89.999130	-0.018464	-89.751370	-85.789560	14.632160	94.771170	47.015200	82.042770	-47.547180	0.000000	0.000000	0.000000	-89.997500	0.062530	-89.159630	68.369690	-41.772140	78.880230	-170.028100	-58.683620	-168.666800	0.000000	0.000000	0.000000	-60.932180	74.778690	-159.705200	-89.852740	27.837440	-91.066530	-42.656900	-4.247242	-6.415413	172.053100	90.000000	0.000000	163.610800	61.297150	-41.590310	89.755490	-36.088670	-91.109740	21.765950	-6.769391	5.650405	183.465000	-90.000000	0.000000
	8.3720	27.4913	-17.5646	29.206630	1.587408	-5.368117	-89.999990	-90.000000	0.000000	-0.111382	-0.149371	-0.052217	-0.363238	-0.444841	-0.168471	0.000000	0.000000	0.000000	0.000000	0.000000	0.000000	89.999570	-0.008494	-89.885430	-87.384810	20.468820	94.257770	42.196250	81.350360	-42.778610	0.000000	0.000000	0.000000	-89.997140	0.073898	-89.006880	68.494900	-41.410320	78.266620	-170.364000	-57.789700	-168.952400	0.000000	0.000000	0.000000	-66.429820	74.507000	-152.974800	-89.830430	29.850700	-91.075230	-41.246310	-4.583148	-6.596114	170.832400	90.000000	0.000000	164.284600	61.027630	-40.301130	89.731460	-37.917640	-91.122340	22.380590	-5.831407	5.124313	183.532900	-90.000000	0.000000
	7.8874	29.0960	-17.9083	29.678530	1.435559	-5.982855	-89.999990	-90.000000	0.000000	-0.099941	-0.080116	-0.037577	-0.344016	-0.288416	-0.137922	0.000000	0.000000	0.000000	0.000000	0.000000	0.000000	90.000050	0.001556	-90.020520	-89.004540	24.974760	93.457500	39.348620	80.850070	-39.965210	0.000000	0.000000	0.000000	-89.996950	0.080072	-88.923910	69.135310	-41.332310	77.881650	-170.533700	-57.320160	-169.095700	0.000000	0.000000	0.000000	-70.904260	74.123260	-147.322200	-89.806320	31.947450	-91.085470	-39.581530	-4.872083	-6.406704	169.524300	90.000000	0.000000	165.187800	61.267910	-39.318730	89.702640	-40.004310	-91.138320	22.865960	-5.008878	4.554234	183.415900	-90.000000	0.000000
	7.5617	30.8573	-18.3215	30.076770	1.389076	-6.741823	-89.999990	-90.000000	0.000000	-0.096115	-0.049745	-0.037934	-0.328142	-0.163721	-0.126151	0.000000	0.000000	0.000000	0.000000	0.000000	0.000000	90.000600	0.012427	-90.166730	-90.031270	29.486380	91.791240	39.236440	80.828710	-39.854470	0.000000	0.000000	0.000000	-89.996950	0.080478	-88.918500	69.802080	-41.499290	77.947650	-170.448300	-57.557930	-169.023700	0.000000	0.000000	0.000000	-73.644340	73.724650	-143.346600	-89.778450	34.265440	-91.098330	-37.247170	-5.087928	-5.934301	167.885800	90.000000	0.000000	166.604200	61.850500	-38.750680	89.669820	-42.242550	-91.157620	22.970540	-4.468561	4.144491	183.581000	-90.000000	0.000000
	7.4879	32.7628	-18.7684	30.423840	1.163476	-7.439688	-89.999990	-90.000000	0.000000	-0.095168	-0.022931	-0.039106	-0.324074	-0.064522	-0.119456	0.000000	0.000000	0.000000	0.000000	0.000000	0.000000	90.001210	0.024339	-90.327000	-90.252410	34.315870	89.520360	42.920090	81.465790	-43.494320	0.000000	0.000000	0.000000	-89.997060	0.076374	-88.973650	70.252830	-41.631810	78.138760	-170.303800	-57.953200	-168.901500	0.000000	0.000000	0.000000	-74.870970	73.417780	-140.898300	-89.746320	36.799130	-91.114420	-34.387260	-5.321357	-5.603532	166.063500	90.000000	0.000000	167.778000	62.345360	-37.860940	89.634280	-44.506900	-91.179730	22.841080	-4.212362	3.945055	184.050000	-90.000000	0.000000
